<?xml version="1.0" standalone="no"?>
<!DOCTYPE svg PUBLIC "-//W3C//DTD SVG 20010904//EN"
 "http://www.w3.org/TR/2001/REC-SVG-20010904/DTD/svg10.dtd">
<svg version="1.0" xmlns="http://www.w3.org/2000/svg"
 width="700.000000pt" height="700.000000pt" viewBox="0 0 700.000000 700.000000"
 preserveAspectRatio="xMidYMid meet">
<metadata>
Created by potrace 1.14, written by Peter Selinger 2001-2017
</metadata>
<g transform="translate(0.000000,700.000000) scale(0.100000,-0.100000)"
fill="#000000" stroke="none">
<path d="M3338 6935 c-2 -2 -50 -6 -108 -9 -120 -8 -137 -10 -280 -31 -119
-18 -128 -20 -208 -35 -75 -13 -81 -15 -192 -40 -52 -12 -115 -26 -140 -32
-319 -71 -763 -261 -1265 -542 -144 -81 -307 -222 -409 -354 -140 -183 -230
-393 -281 -660 -2 -12 -7 -59 -11 -105 -9 -108 -9 -4040 0 -4137 18 -188 75
-346 183 -508 57 -85 191 -228 244 -259 16 -10 29 -21 29 -25 0 -4 7 -8 15 -8
8 0 15 -4 15 -10 0 -5 4 -10 9 -10 5 0 36 -16 69 -35 64 -39 222 -99 287 -110
22 -3 63 -10 90 -15 75 -13 4136 -12 4231 1 308 43 588 218 761 476 96 144
161 322 179 493 9 81 9 4037 0 4140 -23 275 -135 575 -286 764 -108 135 -197
219 -320 300 -222 148 -711 389 -1013 501 -112 41 -329 105 -357 105 -11 0
-29 4 -42 9 -20 8 -129 33 -198 46 -14 3 -47 9 -75 15 -65 13 -100 19 -155 26
-25 3 -47 8 -50 9 -3 2 -37 6 -75 10 -39 3 -81 8 -95 11 -71 12 -541 28 -552
19z m457 -448 c17 -3 59 -7 95 -11 36 -4 88 -11 115 -16 28 -5 68 -12 90 -15
156 -22 478 -99 633 -152 262 -88 790 -343 982 -474 221 -151 369 -401 406
-689 10 -76 11 -4051 2 -4125 -23 -169 -116 -329 -250 -430 -77 -58 -161 -97
-258 -120 -71 -18 -178 -19 -2085 -18 -1105 0 -2038 3 -2072 7 -143 15 -278
81 -383 187 -101 102 -170 236 -187 362 -9 66 -9 4027 0 4125 15 166 86 349
190 492 82 112 187 200 342 285 39 21 86 47 105 58 223 124 576 282 785 352
115 38 478 123 601 140 22 3 49 8 62 11 45 9 179 25 267 31 50 3 92 7 94 9 5
4 424 -4 466 -9z"/>
<path d="M2776 6113 c-23 -7 -60 -29 -80 -49 -115 -112 -83 -291 64 -357 43
-19 66 -20 741 -20 670 1 698 1 740 20 85 38 131 108 131 199 0 62 -20 111
-61 153 -66 67 -33 65 -799 65 -524 1 -704 -2 -736 -11z"/>
<path d="M1800 5226 c-100 -31 -121 -40 -183 -79 -143 -92 -246 -237 -286
-403 -17 -73 -18 -121 -16 -604 1 -289 5 -538 9 -553 57 -232 208 -406 424
-484 37 -14 87 -28 112 -31 25 -4 770 -7 1655 -7 1748 0 1652 -3 1782 55 196
89 339 267 381 478 4 21 7 276 7 567 0 480 -2 536 -18 595 -66 234 -237 403
-478 469 -73 21 -91 21 -1694 20 l-1620 0 -75 -23z m1477 -419 c3 -4 7 -1035
4 -1265 l-1 -43 -688 3 -689 3 -48 30 c-36 22 -57 45 -77 84 l-28 53 0 475 c0
510 1 526 51 586 39 48 92 71 174 77 89 6 1295 4 1302 -3z m1826 -8 c55 -21
96 -58 122 -109 l24 -48 1 -480 c0 -319 -3 -489 -10 -508 -22 -57 -62 -103
-113 -129 l-51 -25 -678 0 c-536 0 -678 3 -678 13 -1 11 0 1020 0 1219 l0 77
33 3 c17 2 322 2 675 1 487 -1 652 -4 675 -14z"/>
<path d="M1645 1736 c-75 -19 -144 -58 -201 -115 -61 -61 -99 -128 -118 -209
-84 -362 292 -655 624 -487 65 33 157 124 187 185 13 25 29 70 37 100 13 48
15 52 16 25 1 -18 48 -127 69 -160 61 -95 166 -166 280 -190 227 -47 455 99
512 328 11 45 8 158 -5 217 -13 55 -63 138 -115 191 -171 170 -441 170 -612
-1 -65 -64 -101 -129 -120 -214 l-13 -59 -12 62 c-48 233 -294 385 -529 327z"/>
<path d="M4263 1735 c-72 -20 -119 -45 -175 -95 -50 -44 -108 -122 -108 -145
0 -8 -4 -16 -9 -19 -5 -3 -12 -23 -16 -43 -5 -21 -10 -45 -12 -53 -10 -46 -2
-143 17 -199 52 -154 167 -260 320 -293 109 -23 188 -14 286 33 114 55 197
158 233 288 l18 65 6 -47 c21 -152 161 -297 328 -339 142 -37 316 16 417 127
159 174 157 429 -5 600 -232 245 -651 135 -734 -192 l-15 -63 -13 53 c-29 114
-124 237 -223 288 -93 47 -216 60 -315 34z"/>
</g>
</svg>
